<svg width="10" height="11" viewBox="0 0 10 11" fill="none" xmlns="http://www.w3.org/2000/svg">
<g clip-path="url(#clip0_1_501)">
<path d="M5.10078 5.25968C5.12031 5.18807 5.10729 5.10669 5.06172 5.01554C5.02266 4.94393 4.96732 4.86906 4.8957 4.79093L0.901563 0.80656C0.797396 0.702393 0.673698 0.65031 0.530469 0.65031C0.38724 0.65031 0.265169 0.702393 0.164258 0.80656C0.0633464 0.910727 0.0128906 1.03442 0.0128906 1.17765C0.0128906 1.32088 0.0617187 1.44458 0.159375 1.54875L3.96797 5.24992L0.159375 8.96086C0.0682292 9.04549 0.0161458 9.14966 0.003125 9.27336C-0.00989583 9.39705 0.0177734 9.51261 0.0861328 9.62004C0.154492 9.72746 0.250521 9.79744 0.374219 9.83C0.497917 9.86255 0.615104 9.85604 0.725781 9.81047C0.790885 9.78442 0.849479 9.74536 0.901563 9.69328L4.8957 5.7089C4.96732 5.63078 5.0194 5.56242 5.05195 5.50382C5.09753 5.41268 5.1138 5.3313 5.10078 5.25968ZM9.78828 4.79093L5.79414 0.80656C5.68997 0.702393 5.56628 0.65031 5.42305 0.65031C5.27982 0.65031 5.15775 0.702393 5.05684 0.80656C4.95592 0.910727 4.90547 1.03442 4.90547 1.17765C4.90547 1.32088 4.9543 1.44458 5.05195 1.54875L8.86055 5.25968L5.05195 8.95109C4.96081 9.04224 4.90872 9.14966 4.8957 9.27336C4.88268 9.39705 4.91198 9.51099 4.98359 9.61515C5.05521 9.71932 5.15124 9.78931 5.27168 9.82511C5.39212 9.86092 5.50768 9.85604 5.61836 9.81047C5.68346 9.78442 5.7388 9.74536 5.78438 9.69328L9.78828 5.71867C9.8599 5.62752 9.91198 5.55591 9.94453 5.50382C9.9901 5.41919 10.0064 5.33781 9.99336 5.25968C10.0259 5.12297 9.95755 4.96672 9.78828 4.79093Z" fill="#3E5765"/>
</g>
<defs>
<clipPath id="clip0_1_501">
<rect width="10" height="10.5" fill="white" transform="matrix(1 0 0 -1 0 10.5)"/>
</clipPath>
</defs>
</svg>
