<svg width="44" height="148" viewBox="0 0 44 148" fill="none" xmlns="http://www.w3.org/2000/svg">
<rect width="44" height="44" rx="22" fill="#0082FF"/>
<path d="M15 25.21V22.41H17.8V25.21H15ZM29 14.7016C28.9978 14.1461 28.7755 13.6141 28.382 13.2221C27.9884 12.8301 27.4555 12.61 26.9 12.61H12.7922C12.2352 12.61 11.7011 12.8312 11.3073 13.2251C10.9134 13.6189 10.6922 14.153 10.6922 14.71V27.31C10.6922 28.2382 11.0609 29.1285 11.7173 29.7849C12.3737 30.4412 13.2639 30.81 14.1922 30.81H29.8078C30.7361 30.81 31.6263 30.4412 32.2827 29.7849C32.939 29.1285 33.3078 28.2382 33.3078 27.31V18.91C33.3078 18.353 33.0865 17.8189 32.6927 17.4251C32.2989 17.0312 31.7648 16.81 31.2078 16.81H30.4V26.932C30.4 27.1176 30.3263 27.2957 30.195 27.427C30.0637 27.5582 29.8857 27.632 29.7 27.632C29.5143 27.632 29.3363 27.5582 29.205 27.427C29.0737 27.2957 29 27.1176 29 26.932V14.7016ZM13.6 17.51C13.6 17.3243 13.6737 17.1463 13.805 17.015C13.9363 16.8837 14.1143 16.81 14.3 16.81H25.5C25.6857 16.81 25.8637 16.8837 25.995 17.015C26.1262 17.1463 26.2 17.3243 26.2 17.51C26.2 17.6956 26.1262 17.8737 25.995 18.005C25.8637 18.1362 25.6857 18.21 25.5 18.21H14.3C14.1143 18.21 13.9363 18.1362 13.805 18.005C13.6737 17.8737 13.6 17.6956 13.6 17.51ZM21.3 21.01H25.5C25.6857 21.01 25.8637 21.0837 25.995 21.215C26.1262 21.3463 26.2 21.5243 26.2 21.71C26.2 21.8956 26.1262 22.0737 25.995 22.205C25.8637 22.3362 25.6857 22.41 25.5 22.41H21.3C21.1143 22.41 20.9363 22.3362 20.805 22.205C20.6737 22.0737 20.6 21.8956 20.6 21.71C20.6 21.5243 20.6737 21.3463 20.805 21.215C20.9363 21.0837 21.1143 21.01 21.3 21.01ZM20.6 25.91C20.6 25.7243 20.6737 25.5463 20.805 25.415C20.9363 25.2837 21.1143 25.21 21.3 25.21H25.5C25.6857 25.21 25.8637 25.2837 25.995 25.415C26.1262 25.5463 26.2 25.7243 26.2 25.91C26.2 26.0956 26.1262 26.2737 25.995 26.405C25.8637 26.5362 25.6857 26.61 25.5 26.61H21.3C21.1143 26.61 20.9363 26.5362 20.805 26.405C20.6737 26.2737 20.6 26.0956 20.6 25.91ZM14.3 21.01H18.5C18.6857 21.01 18.8637 21.0837 18.995 21.215C19.1263 21.3463 19.2 21.5243 19.2 21.71V25.91C19.2 26.0956 19.1263 26.2737 18.995 26.405C18.8637 26.5362 18.6857 26.61 18.5 26.61H14.3C14.1143 26.61 13.9363 26.5362 13.805 26.405C13.6737 26.2737 13.6 26.0956 13.6 25.91V21.71C13.6 21.5243 13.6737 21.3463 13.805 21.215C13.9363 21.0837 14.1143 21.01 14.3 21.01Z" fill="white"/>
</svg>
