<svg width="34" height="44" viewBox="0 0 34 44" fill="none" xmlns="http://www.w3.org/2000/svg">
<g clip-path="url(#clip0_1730_4295)">
<g clip-path="url(#clip1_1730_4295)">
<g clip-path="url(#clip2_1730_4295)">
<g filter="url(#filter0_d_1730_4295)">
<path d="M31 22C31 14.268 24.732 8 17 8C9.26801 8 3 14.268 3 22C3 29.732 9.26801 36 17 36C24.732 36 31 29.732 31 22Z" fill="white"/>
<path d="M19.9697 22.4247C19.9697 22.5662 19.9104 22.7018 19.8053 22.8008L14.9615 27.3651C14.7454 27.5687 14.3986 27.5653 14.1869 27.3576C13.9751 27.1499 13.9786 26.8164 14.1947 26.6129L18.6393 22.4247L14.1947 18.2366C13.9786 18.033 13.9751 17.6996 14.1869 17.4918C14.3986 17.2841 14.7454 17.2807 14.9615 17.4843L19.8053 22.0486C19.9104 22.1476 19.9697 22.2832 19.9697 22.4247Z" fill="#171717"/>
</g>
</g>
</g>
</g>
<defs>
<filter id="filter0_d_1730_4295" x="-5" y="0" width="44" height="44" filterUnits="userSpaceOnUse" color-interpolation-filters="sRGB">
<feFlood flood-opacity="0" result="BackgroundImageFix"/>
<feColorMatrix in="SourceAlpha" type="matrix" values="0 0 0 0 0 0 0 0 0 0 0 0 0 0 0 0 0 0 127 0" result="hardAlpha"/>
<feOffset/>
<feGaussianBlur stdDeviation="4"/>
<feComposite in2="hardAlpha" operator="out"/>
<feColorMatrix type="matrix" values="0 0 0 0 0 0 0 0 0 0 0 0 0 0 0 0 0 0 0.08 0"/>
<feBlend mode="normal" in2="BackgroundImageFix" result="effect1_dropShadow_1730_4295"/>
<feBlend mode="normal" in="SourceGraphic" in2="effect1_dropShadow_1730_4295" result="shape"/>
</filter>
<clipPath id="clip0_1730_4295">
<rect width="34" height="34" fill="white" transform="translate(0 5)"/>
</clipPath>
<clipPath id="clip1_1730_4295">
<rect width="34" height="34" fill="white" transform="translate(0 5)"/>
</clipPath>
<clipPath id="clip2_1730_4295">
<rect width="34" height="34" fill="white" transform="translate(0 5)"/>
</clipPath>
</defs>
</svg>
