<svg width="179" height="179" viewBox="0 0 179 179" fill="none" xmlns="http://www.w3.org/2000/svg">
<circle cx="89.5" cy="89.5" r="74.5" stroke="#0082FF" stroke-width="30"/>
<mask id="path-2-inside-1_1_922" fill="white">
<path d="M89.5 0C74.3468 -1.807e-07 59.4417 3.84739 46.1817 11.1816C32.9217 18.5158 21.7409 29.0966 13.6873 41.9324C5.63363 54.7682 0.970851 69.4386 0.135952 84.5688C-0.698948 99.6989 2.32137 114.793 8.91382 128.437L89.5 89.5V0Z"/>
</mask>
<path d="M89.5 0C74.3468 -1.807e-07 59.4417 3.84739 46.1817 11.1816C32.9217 18.5158 21.7409 29.0966 13.6873 41.9324C5.63363 54.7682 0.970851 69.4386 0.135952 84.5688C-0.698948 99.6989 2.32137 114.793 8.91382 128.437L89.5 89.5V0Z" stroke="#FAA002" stroke-width="60" mask="url(#path-2-inside-1_1_922)"/>
<circle cx="89.5" cy="89.2031" r="59.5" fill="white"/>
<circle cx="89.5" cy="89.2031" r="59.5" stroke="#0082FF"/>
</svg>
